<mxfile host="app.diagrams.net" modified="2024-03-29T11:18:16.903Z" agent="Mozilla/5.0 (Windows NT 10.0; Win64; x64) AppleWebKit/537.36 (KHTML, like Gecko) Chrome/123.0.0.0 Safari/537.36" etag="g7WnnDL-nTLS2JoyCiKn" version="24.2.0" type="github" pages="2">
  <diagram name="第 1 页" id="2eAgeC-R04hNYni1SeuB">
    <mxGraphModel dx="732" dy="610" grid="1" gridSize="10" guides="1" tooltips="1" connect="1" arrows="1" fold="1" page="1" pageScale="1" pageWidth="1169" pageHeight="827" math="0" shadow="0">
      <root>
        <mxCell id="0" />
        <mxCell id="1" parent="0" />
        <mxCell id="SbAz0DDFr4h_F-9t35oi-29" value="" style="group" parent="1" vertex="1" connectable="0">
          <mxGeometry x="350" y="290" width="190" height="150" as="geometry" />
        </mxCell>
        <mxCell id="SbAz0DDFr4h_F-9t35oi-14" value="ModelObject" style="swimlane;fontStyle=0;childLayout=stackLayout;horizontal=1;startSize=26;fillColor=none;horizontalStack=0;resizeParent=1;resizeParentMax=0;resizeLast=0;collapsible=1;marginBottom=0;whiteSpace=wrap;html=1;" parent="SbAz0DDFr4h_F-9t35oi-29" vertex="1">
          <mxGeometry width="190" height="122" as="geometry">
            <mxRectangle width="120" height="30" as="alternateBounds" />
          </mxGeometry>
        </mxCell>
        <mxCell id="SbAz0DDFr4h_F-9t35oi-15" value="+ id: int" style="text;strokeColor=none;fillColor=none;align=left;verticalAlign=top;spacingLeft=4;spacingRight=4;overflow=hidden;rotatable=0;points=[[0,0.5],[1,0.5]];portConstraint=eastwest;whiteSpace=wrap;html=1;" parent="SbAz0DDFr4h_F-9t35oi-14" vertex="1">
          <mxGeometry y="26" width="190" height="26" as="geometry" />
        </mxCell>
        <mxCell id="SbAz0DDFr4h_F-9t35oi-16" value="+ modelName:String" style="text;strokeColor=none;fillColor=none;align=left;verticalAlign=top;spacingLeft=4;spacingRight=4;overflow=hidden;rotatable=0;points=[[0,0.5],[1,0.5]];portConstraint=eastwest;whiteSpace=wrap;html=1;" parent="SbAz0DDFr4h_F-9t35oi-14" vertex="1">
          <mxGeometry y="52" width="190" height="18" as="geometry" />
        </mxCell>
        <mxCell id="SbAz0DDFr4h_F-9t35oi-17" value="+ modelCategory:int" style="text;strokeColor=none;fillColor=none;align=left;verticalAlign=top;spacingLeft=4;spacingRight=4;overflow=hidden;rotatable=0;points=[[0,0.5],[1,0.5]];portConstraint=eastwest;whiteSpace=wrap;html=1;" parent="SbAz0DDFr4h_F-9t35oi-14" vertex="1">
          <mxGeometry y="70" width="190" height="52" as="geometry" />
        </mxCell>
        <mxCell id="SbAz0DDFr4h_F-9t35oi-23" value="+ methods:Methods" style="text;strokeColor=#666666;fillColor=#f5f5f5;align=left;verticalAlign=top;spacingLeft=4;spacingRight=4;overflow=hidden;rotatable=0;points=[[0,0.5],[1,0.5]];portConstraint=eastwest;whiteSpace=wrap;html=1;fontColor=#333333;" parent="SbAz0DDFr4h_F-9t35oi-29" vertex="1">
          <mxGeometry y="104" width="190.00000000000003" height="26" as="geometry" />
        </mxCell>
        <mxCell id="SbAz0DDFr4h_F-9t35oi-70" value="" style="group" parent="1" vertex="1" connectable="0">
          <mxGeometry x="600" y="470" width="250.77" height="172" as="geometry" />
        </mxCell>
        <mxCell id="SbAz0DDFr4h_F-9t35oi-71" value="Method" style="swimlane;fontStyle=0;childLayout=stackLayout;horizontal=1;startSize=26;fillColor=none;horizontalStack=0;resizeParent=1;resizeParentMax=0;resizeLast=0;collapsible=1;marginBottom=0;whiteSpace=wrap;html=1;" parent="SbAz0DDFr4h_F-9t35oi-70" vertex="1">
          <mxGeometry x="21.472660550458713" width="229.2973394495413" height="161.88000000000005" as="geometry">
            <mxRectangle width="120" height="30" as="alternateBounds" />
          </mxGeometry>
        </mxCell>
        <mxCell id="SbAz0DDFr4h_F-9t35oi-72" value="+ id: int" style="text;strokeColor=none;fillColor=none;align=left;verticalAlign=top;spacingLeft=4;spacingRight=4;overflow=hidden;rotatable=0;points=[[0,0.5],[1,0.5]];portConstraint=eastwest;whiteSpace=wrap;html=1;" parent="SbAz0DDFr4h_F-9t35oi-71" vertex="1">
          <mxGeometry y="26" width="229.2973394495413" height="22.360000000000007" as="geometry" />
        </mxCell>
        <mxCell id="SbAz0DDFr4h_F-9t35oi-73" value="+ methodName:String&amp;nbsp;" style="text;strokeColor=none;fillColor=none;align=left;verticalAlign=top;spacingLeft=4;spacingRight=4;overflow=hidden;rotatable=0;points=[[0,0.5],[1,0.5]];portConstraint=eastwest;whiteSpace=wrap;html=1;" parent="SbAz0DDFr4h_F-9t35oi-71" vertex="1">
          <mxGeometry y="48.36000000000001" width="229.2973394495413" height="24.080000000000002" as="geometry" />
        </mxCell>
        <mxCell id="SbAz0DDFr4h_F-9t35oi-74" value="+ interpreter:String" style="text;strokeColor=none;fillColor=none;align=left;verticalAlign=top;spacingLeft=4;spacingRight=4;overflow=hidden;rotatable=0;points=[[0,0.5],[1,0.5]];portConstraint=eastwest;whiteSpace=wrap;html=1;" parent="SbAz0DDFr4h_F-9t35oi-71" vertex="1">
          <mxGeometry y="72.44000000000001" width="229.2973394495413" height="17.200000000000003" as="geometry" />
        </mxCell>
        <mxCell id="SbAz0DDFr4h_F-9t35oi-75" value="+ modelUrl:String" style="text;strokeColor=none;fillColor=none;align=left;verticalAlign=top;spacingLeft=4;spacingRight=4;overflow=hidden;rotatable=0;points=[[0,0.5],[1,0.5]];portConstraint=eastwest;whiteSpace=wrap;html=1;" parent="SbAz0DDFr4h_F-9t35oi-71" vertex="1">
          <mxGeometry y="89.64000000000001" width="229.2973394495413" height="22.360000000000007" as="geometry" />
        </mxCell>
        <mxCell id="SbAz0DDFr4h_F-9t35oi-76" value="+ modelid:int" style="text;strokeColor=none;fillColor=none;align=left;verticalAlign=top;spacingLeft=4;spacingRight=4;overflow=hidden;rotatable=0;points=[[0,0.5],[1,0.5]];portConstraint=eastwest;whiteSpace=wrap;html=1;" parent="SbAz0DDFr4h_F-9t35oi-71" vertex="1">
          <mxGeometry y="112.00000000000003" width="229.2973394495413" height="22.360000000000007" as="geometry" />
        </mxCell>
        <mxCell id="SbAz0DDFr4h_F-9t35oi-77" value="+ methodParameters:MethodParameter" style="text;strokeColor=#666666;fillColor=#f5f5f5;align=left;verticalAlign=top;spacingLeft=4;spacingRight=4;overflow=hidden;rotatable=0;points=[[0,0.5],[1,0.5]];portConstraint=eastwest;whiteSpace=wrap;html=1;fontColor=#333333;" parent="SbAz0DDFr4h_F-9t35oi-71" vertex="1">
          <mxGeometry y="134.36000000000004" width="229.2973394495413" height="27.52" as="geometry" />
        </mxCell>
        <mxCell id="VTVYJv35SNL--PON1OUb-31" value="&lt;font style=&quot;font-size: 10px;&quot;&gt;1&lt;/font&gt;" style="text;html=1;align=center;verticalAlign=middle;whiteSpace=wrap;rounded=0;" vertex="1" parent="SbAz0DDFr4h_F-9t35oi-70">
          <mxGeometry y="60" width="20" height="8" as="geometry" />
        </mxCell>
        <mxCell id="SbAz0DDFr4h_F-9t35oi-93" value="" style="group" parent="1" vertex="1" connectable="0">
          <mxGeometry x="340" y="470" width="210" height="200" as="geometry" />
        </mxCell>
        <mxCell id="SbAz0DDFr4h_F-9t35oi-94" value="MethodParamether" style="swimlane;fontStyle=0;childLayout=stackLayout;horizontal=1;startSize=26;fillColor=none;horizontalStack=0;resizeParent=1;resizeParentMax=0;resizeLast=0;collapsible=1;marginBottom=0;whiteSpace=wrap;html=1;" parent="SbAz0DDFr4h_F-9t35oi-93" vertex="1">
          <mxGeometry width="210" height="162" as="geometry">
            <mxRectangle width="120" height="30" as="alternateBounds" />
          </mxGeometry>
        </mxCell>
        <mxCell id="SbAz0DDFr4h_F-9t35oi-95" value="+ id: int" style="text;strokeColor=none;fillColor=none;align=left;verticalAlign=top;spacingLeft=4;spacingRight=4;overflow=hidden;rotatable=0;points=[[0,0.5],[1,0.5]];portConstraint=eastwest;whiteSpace=wrap;html=1;" parent="SbAz0DDFr4h_F-9t35oi-94" vertex="1">
          <mxGeometry y="26" width="210" height="26" as="geometry" />
        </mxCell>
        <mxCell id="SbAz0DDFr4h_F-9t35oi-96" value="+ args:String" style="text;strokeColor=none;fillColor=none;align=left;verticalAlign=top;spacingLeft=4;spacingRight=4;overflow=hidden;rotatable=0;points=[[0,0.5],[1,0.5]];portConstraint=eastwest;whiteSpace=wrap;html=1;" parent="SbAz0DDFr4h_F-9t35oi-94" vertex="1">
          <mxGeometry y="52" width="210" height="28" as="geometry" />
        </mxCell>
        <mxCell id="SbAz0DDFr4h_F-9t35oi-97" value="+&amp;nbsp;returnType:String" style="text;strokeColor=none;fillColor=none;align=left;verticalAlign=top;spacingLeft=4;spacingRight=4;overflow=hidden;rotatable=0;points=[[0,0.5],[1,0.5]];portConstraint=eastwest;whiteSpace=wrap;html=1;" parent="SbAz0DDFr4h_F-9t35oi-94" vertex="1">
          <mxGeometry y="80" width="210" height="30" as="geometry" />
        </mxCell>
        <mxCell id="SbAz0DDFr4h_F-9t35oi-98" value="+ description:String" style="text;strokeColor=none;fillColor=none;align=left;verticalAlign=top;spacingLeft=4;spacingRight=4;overflow=hidden;rotatable=0;points=[[0,0.5],[1,0.5]];portConstraint=eastwest;whiteSpace=wrap;html=1;" parent="SbAz0DDFr4h_F-9t35oi-94" vertex="1">
          <mxGeometry y="110" width="210" height="26" as="geometry" />
        </mxCell>
        <mxCell id="SbAz0DDFr4h_F-9t35oi-99" value="+ methodid:int" style="text;strokeColor=none;fillColor=none;align=left;verticalAlign=top;spacingLeft=4;spacingRight=4;overflow=hidden;rotatable=0;points=[[0,0.5],[1,0.5]];portConstraint=eastwest;whiteSpace=wrap;html=1;" parent="SbAz0DDFr4h_F-9t35oi-94" vertex="1">
          <mxGeometry y="136" width="210" height="26" as="geometry" />
        </mxCell>
        <mxCell id="zyXgO9R8dJ2PUQRsxswK-3" value="ModelObjects" style="swimlane;fontStyle=1;align=center;verticalAlign=top;childLayout=stackLayout;horizontal=1;startSize=26;horizontalStack=0;resizeParent=1;resizeParentMax=0;resizeLast=0;collapsible=1;marginBottom=0;whiteSpace=wrap;html=1;" vertex="1" parent="1">
          <mxGeometry x="342.5" y="148" width="205" height="52" as="geometry" />
        </mxCell>
        <mxCell id="zyXgO9R8dJ2PUQRsxswK-4" value="+ ModelObjects: List&amp;lt;ModelObject&amp;gt;" style="text;strokeColor=none;fillColor=none;align=left;verticalAlign=top;spacingLeft=4;spacingRight=4;overflow=hidden;rotatable=0;points=[[0,0.5],[1,0.5]];portConstraint=eastwest;whiteSpace=wrap;html=1;" vertex="1" parent="zyXgO9R8dJ2PUQRsxswK-3">
          <mxGeometry y="26" width="205" height="26" as="geometry" />
        </mxCell>
        <mxCell id="zyXgO9R8dJ2PUQRsxswK-7" style="rounded=0;orthogonalLoop=1;jettySize=auto;html=1;entryX=0.498;entryY=0.968;entryDx=0;entryDy=0;entryPerimeter=0;endArrow=diamondThin;endFill=0;exitX=0.5;exitY=0;exitDx=0;exitDy=0;" edge="1" parent="1" source="SbAz0DDFr4h_F-9t35oi-14" target="zyXgO9R8dJ2PUQRsxswK-4">
          <mxGeometry relative="1" as="geometry" />
        </mxCell>
        <mxCell id="zyXgO9R8dJ2PUQRsxswK-10" value="&lt;font style=&quot;font-size: 10px;&quot;&gt;1..*&lt;/font&gt;" style="text;html=1;align=center;verticalAlign=middle;whiteSpace=wrap;rounded=0;" vertex="1" parent="1">
          <mxGeometry x="450" y="270" width="20" height="8" as="geometry" />
        </mxCell>
        <mxCell id="zyXgO9R8dJ2PUQRsxswK-11" value="&lt;font style=&quot;font-size: 12px;&quot;&gt;1&lt;/font&gt;" style="text;html=1;align=center;verticalAlign=middle;whiteSpace=wrap;rounded=0;" vertex="1" parent="1">
          <mxGeometry x="450" y="210" width="20" height="8" as="geometry" />
        </mxCell>
        <mxCell id="VTVYJv35SNL--PON1OUb-13" value="Methods" style="swimlane;fontStyle=1;align=center;verticalAlign=top;childLayout=stackLayout;horizontal=1;startSize=26;horizontalStack=0;resizeParent=1;resizeParentMax=0;resizeLast=0;collapsible=1;marginBottom=0;whiteSpace=wrap;html=1;" vertex="1" parent="1">
          <mxGeometry x="635" y="325" width="200" height="52" as="geometry" />
        </mxCell>
        <mxCell id="VTVYJv35SNL--PON1OUb-14" value="+ Methods: List&amp;lt;Method&amp;gt;" style="text;strokeColor=none;fillColor=none;align=left;verticalAlign=top;spacingLeft=4;spacingRight=4;overflow=hidden;rotatable=0;points=[[0,0.5],[1,0.5]];portConstraint=eastwest;whiteSpace=wrap;html=1;" vertex="1" parent="VTVYJv35SNL--PON1OUb-13">
          <mxGeometry y="26" width="200" height="26" as="geometry" />
        </mxCell>
        <mxCell id="VTVYJv35SNL--PON1OUb-16" style="edgeStyle=orthogonalEdgeStyle;rounded=0;orthogonalLoop=1;jettySize=auto;html=1;entryX=1.016;entryY=0.512;entryDx=0;entryDy=0;entryPerimeter=0;endArrow=diamondThin;endFill=0;" edge="1" parent="1">
          <mxGeometry relative="1" as="geometry">
            <mxPoint x="631.96" y="350.83" as="sourcePoint" />
            <mxPoint x="540" y="351.046" as="targetPoint" />
          </mxGeometry>
        </mxCell>
        <mxCell id="VTVYJv35SNL--PON1OUb-17" value="&lt;font style=&quot;font-size: 10px;&quot;&gt;1&lt;/font&gt;" style="text;html=1;align=center;verticalAlign=middle;whiteSpace=wrap;rounded=0;" vertex="1" parent="1">
          <mxGeometry x="610" y="330" width="20" height="8" as="geometry" />
        </mxCell>
        <mxCell id="VTVYJv35SNL--PON1OUb-18" value="&lt;font style=&quot;font-size: 10px;&quot;&gt;1&lt;/font&gt;" style="text;html=1;align=center;verticalAlign=middle;whiteSpace=wrap;rounded=0;" vertex="1" parent="1">
          <mxGeometry x="540" y="330" width="20" height="8" as="geometry" />
        </mxCell>
        <mxCell id="VTVYJv35SNL--PON1OUb-20" style="edgeStyle=orthogonalEdgeStyle;rounded=0;orthogonalLoop=1;jettySize=auto;html=1;entryX=0.51;entryY=0.964;entryDx=0;entryDy=0;entryPerimeter=0;endArrow=diamondThin;endFill=0;" edge="1" parent="1" source="SbAz0DDFr4h_F-9t35oi-71" target="VTVYJv35SNL--PON1OUb-14">
          <mxGeometry relative="1" as="geometry" />
        </mxCell>
        <mxCell id="VTVYJv35SNL--PON1OUb-26" value="&lt;font style=&quot;font-size: 12px;&quot;&gt;1&lt;/font&gt;" style="text;html=1;align=center;verticalAlign=middle;whiteSpace=wrap;rounded=0;" vertex="1" parent="1">
          <mxGeometry x="750" y="390" width="20" height="8" as="geometry" />
        </mxCell>
        <mxCell id="VTVYJv35SNL--PON1OUb-27" value="&lt;font style=&quot;font-size: 10px;&quot;&gt;1..*&lt;/font&gt;" style="text;html=1;align=center;verticalAlign=middle;whiteSpace=wrap;rounded=0;" vertex="1" parent="1">
          <mxGeometry x="760" y="450" width="20" height="8" as="geometry" />
        </mxCell>
        <mxCell id="VTVYJv35SNL--PON1OUb-28" style="edgeStyle=orthogonalEdgeStyle;rounded=0;orthogonalLoop=1;jettySize=auto;html=1;entryX=0;entryY=0.5;entryDx=0;entryDy=0;endArrow=diamondThin;endFill=0;" edge="1" parent="1" source="SbAz0DDFr4h_F-9t35oi-94" target="SbAz0DDFr4h_F-9t35oi-71">
          <mxGeometry relative="1" as="geometry" />
        </mxCell>
        <mxCell id="VTVYJv35SNL--PON1OUb-30" value="&lt;font style=&quot;font-size: 10px;&quot;&gt;1&lt;/font&gt;" style="text;html=1;align=center;verticalAlign=middle;whiteSpace=wrap;rounded=0;" vertex="1" parent="1">
          <mxGeometry x="550" y="530" width="20" height="8" as="geometry" />
        </mxCell>
      </root>
    </mxGraphModel>
  </diagram>
  <diagram id="2nIudb9Nil_v2xU6o04d" name="第 2 页">
    <mxGraphModel dx="627" dy="523" grid="1" gridSize="10" guides="1" tooltips="1" connect="1" arrows="1" fold="1" page="1" pageScale="1" pageWidth="1169" pageHeight="827" math="0" shadow="0">
      <root>
        <mxCell id="0" />
        <mxCell id="1" parent="0" />
        <mxCell id="9fIwNDRbNeXNYyzYhg-B-1" value="" style="group" vertex="1" connectable="0" parent="1">
          <mxGeometry x="350" y="290" width="190" height="150" as="geometry" />
        </mxCell>
        <mxCell id="9fIwNDRbNeXNYyzYhg-B-2" value="ModelObject" style="swimlane;fontStyle=0;childLayout=stackLayout;horizontal=1;startSize=26;fillColor=none;horizontalStack=0;resizeParent=1;resizeParentMax=0;resizeLast=0;collapsible=1;marginBottom=0;whiteSpace=wrap;html=1;" vertex="1" parent="9fIwNDRbNeXNYyzYhg-B-1">
          <mxGeometry width="190" height="122" as="geometry">
            <mxRectangle width="120" height="30" as="alternateBounds" />
          </mxGeometry>
        </mxCell>
        <mxCell id="9fIwNDRbNeXNYyzYhg-B-3" value="+ id: int" style="text;strokeColor=none;fillColor=none;align=left;verticalAlign=top;spacingLeft=4;spacingRight=4;overflow=hidden;rotatable=0;points=[[0,0.5],[1,0.5]];portConstraint=eastwest;whiteSpace=wrap;html=1;" vertex="1" parent="9fIwNDRbNeXNYyzYhg-B-2">
          <mxGeometry y="26" width="190" height="26" as="geometry" />
        </mxCell>
        <mxCell id="9fIwNDRbNeXNYyzYhg-B-4" value="+ modelName:String" style="text;strokeColor=none;fillColor=none;align=left;verticalAlign=top;spacingLeft=4;spacingRight=4;overflow=hidden;rotatable=0;points=[[0,0.5],[1,0.5]];portConstraint=eastwest;whiteSpace=wrap;html=1;" vertex="1" parent="9fIwNDRbNeXNYyzYhg-B-2">
          <mxGeometry y="52" width="190" height="18" as="geometry" />
        </mxCell>
        <mxCell id="9fIwNDRbNeXNYyzYhg-B-5" value="+ modelCategory:int" style="text;strokeColor=none;fillColor=none;align=left;verticalAlign=top;spacingLeft=4;spacingRight=4;overflow=hidden;rotatable=0;points=[[0,0.5],[1,0.5]];portConstraint=eastwest;whiteSpace=wrap;html=1;" vertex="1" parent="9fIwNDRbNeXNYyzYhg-B-2">
          <mxGeometry y="70" width="190" height="52" as="geometry" />
        </mxCell>
        <mxCell id="9fIwNDRbNeXNYyzYhg-B-6" value="+ methods:List&amp;lt;Method&amp;gt;" style="text;strokeColor=#666666;fillColor=#f5f5f5;align=left;verticalAlign=top;spacingLeft=4;spacingRight=4;overflow=hidden;rotatable=0;points=[[0,0.5],[1,0.5]];portConstraint=eastwest;whiteSpace=wrap;html=1;fontColor=#333333;" vertex="1" parent="9fIwNDRbNeXNYyzYhg-B-1">
          <mxGeometry y="104" width="190.00000000000003" height="26" as="geometry" />
        </mxCell>
        <mxCell id="9fIwNDRbNeXNYyzYhg-B-7" value="" style="group" vertex="1" connectable="0" parent="1">
          <mxGeometry x="660" y="270" width="250.77" height="172" as="geometry" />
        </mxCell>
        <mxCell id="9fIwNDRbNeXNYyzYhg-B-8" value="Method" style="swimlane;fontStyle=0;childLayout=stackLayout;horizontal=1;startSize=26;fillColor=none;horizontalStack=0;resizeParent=1;resizeParentMax=0;resizeLast=0;collapsible=1;marginBottom=0;whiteSpace=wrap;html=1;" vertex="1" parent="9fIwNDRbNeXNYyzYhg-B-7">
          <mxGeometry x="21.472660550458713" width="229.2973394495413" height="161.88000000000005" as="geometry">
            <mxRectangle width="120" height="30" as="alternateBounds" />
          </mxGeometry>
        </mxCell>
        <mxCell id="9fIwNDRbNeXNYyzYhg-B-9" value="+ id: int" style="text;strokeColor=none;fillColor=none;align=left;verticalAlign=top;spacingLeft=4;spacingRight=4;overflow=hidden;rotatable=0;points=[[0,0.5],[1,0.5]];portConstraint=eastwest;whiteSpace=wrap;html=1;" vertex="1" parent="9fIwNDRbNeXNYyzYhg-B-8">
          <mxGeometry y="26" width="229.2973394495413" height="22.360000000000007" as="geometry" />
        </mxCell>
        <mxCell id="9fIwNDRbNeXNYyzYhg-B-10" value="+ methodName:String&amp;nbsp;" style="text;strokeColor=none;fillColor=none;align=left;verticalAlign=top;spacingLeft=4;spacingRight=4;overflow=hidden;rotatable=0;points=[[0,0.5],[1,0.5]];portConstraint=eastwest;whiteSpace=wrap;html=1;" vertex="1" parent="9fIwNDRbNeXNYyzYhg-B-8">
          <mxGeometry y="48.36000000000001" width="229.2973394495413" height="24.080000000000002" as="geometry" />
        </mxCell>
        <mxCell id="9fIwNDRbNeXNYyzYhg-B-11" value="+ interpreter:String" style="text;strokeColor=none;fillColor=none;align=left;verticalAlign=top;spacingLeft=4;spacingRight=4;overflow=hidden;rotatable=0;points=[[0,0.5],[1,0.5]];portConstraint=eastwest;whiteSpace=wrap;html=1;" vertex="1" parent="9fIwNDRbNeXNYyzYhg-B-8">
          <mxGeometry y="72.44000000000001" width="229.2973394495413" height="17.200000000000003" as="geometry" />
        </mxCell>
        <mxCell id="9fIwNDRbNeXNYyzYhg-B-12" value="+ modelUrl:String" style="text;strokeColor=none;fillColor=none;align=left;verticalAlign=top;spacingLeft=4;spacingRight=4;overflow=hidden;rotatable=0;points=[[0,0.5],[1,0.5]];portConstraint=eastwest;whiteSpace=wrap;html=1;" vertex="1" parent="9fIwNDRbNeXNYyzYhg-B-8">
          <mxGeometry y="89.64000000000001" width="229.2973394495413" height="22.360000000000007" as="geometry" />
        </mxCell>
        <mxCell id="9fIwNDRbNeXNYyzYhg-B-13" value="+ modelid:int" style="text;strokeColor=none;fillColor=none;align=left;verticalAlign=top;spacingLeft=4;spacingRight=4;overflow=hidden;rotatable=0;points=[[0,0.5],[1,0.5]];portConstraint=eastwest;whiteSpace=wrap;html=1;" vertex="1" parent="9fIwNDRbNeXNYyzYhg-B-8">
          <mxGeometry y="112.00000000000003" width="229.2973394495413" height="22.360000000000007" as="geometry" />
        </mxCell>
        <mxCell id="9fIwNDRbNeXNYyzYhg-B-14" value="+ methodParameters:MethodParameter" style="text;strokeColor=#666666;fillColor=#f5f5f5;align=left;verticalAlign=top;spacingLeft=4;spacingRight=4;overflow=hidden;rotatable=0;points=[[0,0.5],[1,0.5]];portConstraint=eastwest;whiteSpace=wrap;html=1;fontColor=#333333;" vertex="1" parent="9fIwNDRbNeXNYyzYhg-B-8">
          <mxGeometry y="134.36000000000004" width="229.2973394495413" height="27.52" as="geometry" />
        </mxCell>
        <mxCell id="9fIwNDRbNeXNYyzYhg-B-35" value="&lt;font style=&quot;font-size: 10px;&quot;&gt;1..*&lt;/font&gt;" style="text;html=1;align=center;verticalAlign=middle;whiteSpace=wrap;rounded=0;" vertex="1" parent="9fIwNDRbNeXNYyzYhg-B-7">
          <mxGeometry x="-10" y="60" width="20" height="8" as="geometry" />
        </mxCell>
        <mxCell id="9fIwNDRbNeXNYyzYhg-B-16" value="" style="group" vertex="1" connectable="0" parent="1">
          <mxGeometry x="680.77" y="40" width="230" height="210" as="geometry" />
        </mxCell>
        <mxCell id="9fIwNDRbNeXNYyzYhg-B-17" value="MethodParamether" style="swimlane;fontStyle=0;childLayout=stackLayout;horizontal=1;startSize=26;fillColor=none;horizontalStack=0;resizeParent=1;resizeParentMax=0;resizeLast=0;collapsible=1;marginBottom=0;whiteSpace=wrap;html=1;" vertex="1" parent="9fIwNDRbNeXNYyzYhg-B-16">
          <mxGeometry width="230" height="168.8" as="geometry">
            <mxRectangle width="120" height="30" as="alternateBounds" />
          </mxGeometry>
        </mxCell>
        <mxCell id="9fIwNDRbNeXNYyzYhg-B-18" value="+ id: int" style="text;strokeColor=none;fillColor=none;align=left;verticalAlign=top;spacingLeft=4;spacingRight=4;overflow=hidden;rotatable=0;points=[[0,0.5],[1,0.5]];portConstraint=eastwest;whiteSpace=wrap;html=1;" vertex="1" parent="9fIwNDRbNeXNYyzYhg-B-17">
          <mxGeometry y="26" width="230" height="27.3" as="geometry" />
        </mxCell>
        <mxCell id="9fIwNDRbNeXNYyzYhg-B-19" value="+ args:String" style="text;strokeColor=none;fillColor=none;align=left;verticalAlign=top;spacingLeft=4;spacingRight=4;overflow=hidden;rotatable=0;points=[[0,0.5],[1,0.5]];portConstraint=eastwest;whiteSpace=wrap;html=1;" vertex="1" parent="9fIwNDRbNeXNYyzYhg-B-17">
          <mxGeometry y="53.3" width="230" height="29.400000000000002" as="geometry" />
        </mxCell>
        <mxCell id="9fIwNDRbNeXNYyzYhg-B-20" value="+&amp;nbsp;returnType:String" style="text;strokeColor=none;fillColor=none;align=left;verticalAlign=top;spacingLeft=4;spacingRight=4;overflow=hidden;rotatable=0;points=[[0,0.5],[1,0.5]];portConstraint=eastwest;whiteSpace=wrap;html=1;" vertex="1" parent="9fIwNDRbNeXNYyzYhg-B-17">
          <mxGeometry y="82.7" width="230" height="31.5" as="geometry" />
        </mxCell>
        <mxCell id="9fIwNDRbNeXNYyzYhg-B-21" value="+ description:String" style="text;strokeColor=none;fillColor=none;align=left;verticalAlign=top;spacingLeft=4;spacingRight=4;overflow=hidden;rotatable=0;points=[[0,0.5],[1,0.5]];portConstraint=eastwest;whiteSpace=wrap;html=1;" vertex="1" parent="9fIwNDRbNeXNYyzYhg-B-17">
          <mxGeometry y="114.2" width="230" height="27.3" as="geometry" />
        </mxCell>
        <mxCell id="9fIwNDRbNeXNYyzYhg-B-22" value="+ methodid:int" style="text;strokeColor=none;fillColor=none;align=left;verticalAlign=top;spacingLeft=4;spacingRight=4;overflow=hidden;rotatable=0;points=[[0,0.5],[1,0.5]];portConstraint=eastwest;whiteSpace=wrap;html=1;" vertex="1" parent="9fIwNDRbNeXNYyzYhg-B-17">
          <mxGeometry y="141.5" width="230" height="27.3" as="geometry" />
        </mxCell>
        <mxCell id="9fIwNDRbNeXNYyzYhg-B-41" value="&lt;font style=&quot;font-size: 10px;&quot;&gt;1&lt;/font&gt;" style="text;html=1;align=center;verticalAlign=middle;whiteSpace=wrap;rounded=0;" vertex="1" parent="9fIwNDRbNeXNYyzYhg-B-16">
          <mxGeometry x="119.23000000000002" y="178" width="20" height="8" as="geometry" />
        </mxCell>
        <mxCell id="9fIwNDRbNeXNYyzYhg-B-23" value="ModelObjects" style="swimlane;fontStyle=1;align=center;verticalAlign=top;childLayout=stackLayout;horizontal=1;startSize=26;horizontalStack=0;resizeParent=1;resizeParentMax=0;resizeLast=0;collapsible=1;marginBottom=0;whiteSpace=wrap;html=1;" vertex="1" parent="1">
          <mxGeometry x="340" y="90" width="210" height="52" as="geometry" />
        </mxCell>
        <mxCell id="9fIwNDRbNeXNYyzYhg-B-24" value="+ ModelObjects: List&amp;lt;ModelObject&amp;gt;" style="text;strokeColor=none;fillColor=none;align=left;verticalAlign=top;spacingLeft=4;spacingRight=4;overflow=hidden;rotatable=0;points=[[0,0.5],[1,0.5]];portConstraint=eastwest;whiteSpace=wrap;html=1;" vertex="1" parent="9fIwNDRbNeXNYyzYhg-B-23">
          <mxGeometry y="26" width="210" height="26" as="geometry" />
        </mxCell>
        <mxCell id="9fIwNDRbNeXNYyzYhg-B-25" style="rounded=0;orthogonalLoop=1;jettySize=auto;html=1;entryX=0.498;entryY=0.968;entryDx=0;entryDy=0;entryPerimeter=0;endArrow=diamondThin;endFill=0;exitX=0.5;exitY=0;exitDx=0;exitDy=0;" edge="1" parent="1" source="9fIwNDRbNeXNYyzYhg-B-2" target="9fIwNDRbNeXNYyzYhg-B-24">
          <mxGeometry relative="1" as="geometry" />
        </mxCell>
        <mxCell id="9fIwNDRbNeXNYyzYhg-B-26" value="&lt;font style=&quot;font-size: 10px;&quot;&gt;1..*&lt;/font&gt;" style="text;html=1;align=center;verticalAlign=middle;whiteSpace=wrap;rounded=0;" vertex="1" parent="1">
          <mxGeometry x="450" y="250" width="20" height="8" as="geometry" />
        </mxCell>
        <mxCell id="9fIwNDRbNeXNYyzYhg-B-27" value="&lt;font style=&quot;font-size: 12px;&quot;&gt;1&lt;/font&gt;" style="text;html=1;align=center;verticalAlign=middle;whiteSpace=wrap;rounded=0;" vertex="1" parent="1">
          <mxGeometry x="450" y="170" width="20" height="8" as="geometry" />
        </mxCell>
        <mxCell id="9fIwNDRbNeXNYyzYhg-B-33" style="edgeStyle=orthogonalEdgeStyle;rounded=0;orthogonalLoop=1;jettySize=auto;html=1;entryX=1;entryY=0.5;entryDx=0;entryDy=0;endArrow=diamondThin;endFill=0;" edge="1" parent="1" source="9fIwNDRbNeXNYyzYhg-B-8" target="9fIwNDRbNeXNYyzYhg-B-4">
          <mxGeometry relative="1" as="geometry">
            <mxPoint x="737" y="376.06399999999996" as="targetPoint" />
          </mxGeometry>
        </mxCell>
        <mxCell id="9fIwNDRbNeXNYyzYhg-B-15" value="&lt;font style=&quot;font-size: 10px;&quot;&gt;1&lt;/font&gt;" style="text;html=1;align=center;verticalAlign=middle;whiteSpace=wrap;rounded=0;" vertex="1" parent="1">
          <mxGeometry x="550" y="330" width="20" height="8" as="geometry" />
        </mxCell>
        <mxCell id="9fIwNDRbNeXNYyzYhg-B-39" style="edgeStyle=orthogonalEdgeStyle;rounded=0;orthogonalLoop=1;jettySize=auto;html=1;endArrow=diamondThin;endFill=0;" edge="1" parent="1" source="9fIwNDRbNeXNYyzYhg-B-17" target="9fIwNDRbNeXNYyzYhg-B-8">
          <mxGeometry relative="1" as="geometry" />
        </mxCell>
        <mxCell id="9fIwNDRbNeXNYyzYhg-B-40" value="&lt;font style=&quot;font-size: 10px;&quot;&gt;1&lt;/font&gt;" style="text;html=1;align=center;verticalAlign=middle;whiteSpace=wrap;rounded=0;" vertex="1" parent="1">
          <mxGeometry x="800" y="250" width="20" height="8" as="geometry" />
        </mxCell>
      </root>
    </mxGraphModel>
  </diagram>
</mxfile>
